<svg fill="#9ea3a8" width="20" height="20" xmlns="http://www.w3.org/2000/svg">
 <g>
  <g stroke="null" id="svg_1">
   <g stroke="null" transform="matrix(0.03678828155720942,0,0,-0.035838014029133905,73.2057682990249,179.03818173348145) " id="g100">
    <path fill-rule="nonzero" d="m-1751.47233,4712.814147c3.5,-5.952 7.112,-11.829 10.707,-17.717c3.569,-5.905 7.213,-11.76 10.891,-17.593l3.547,-5.629l7.718,-0.39c15.618,-0.788 31.237,-1.041 46.855,-0.963c15.618,0.014 31.237,0.622 46.855,1.514c15.618,0.924 31.236,2.365 46.854,4.392c15.619,2.12 31.238,4.584 46.856,8.61c-15.618,4.026 -31.237,6.49 -46.856,8.61c-15.618,2.026 -31.236,3.468 -46.854,4.392c-15.618,0.892 -31.237,1.5 -46.855,1.515c-13.378,0.066 -26.756,-0.133 -40.134,-0.681c-2.509,3.501 -5.001,7.014 -7.558,10.482c-4.07,5.571 -8.122,11.153 -12.286,16.661c-8.254,11.065 -16.621,22.053 -25.183,32.911c-8.516,10.89 -17.244,21.637 -26.132,32.278c-8.891,10.638 -18.006,21.127 -27.533,31.34c5.801,-12.705 12.015,-25.134 18.452,-37.414c6.441,-12.277 13.041,-24.448 19.854,-36.476c6.766,-12.06 13.727,-23.989 20.802,-35.842" id="path102"/>
   </g>
   <g stroke="null" transform="matrix(0.03678828155720942,0,0,-0.035838014029133905,73.2057682990249,179.03818173348145) " id="g104">
    <path fill-rule="nonzero" d="m-1485.268717,4845.250182c-12.269,21.199 -27.843,40.644 -45.921,57.664l0,67.459c0,10.658 -8.64,19.297 -19.298,19.297l-27.036,0c-10.658,0 -19.298,-8.639 -19.298,-19.297l0,-22.277c-1.66,0.8 -3.305,1.628 -4.983,2.393c-12.241,5.631 -24.99,10.16 -37.97,13.996c-13.023,3.721 -26.382,6.183 -39.833,8.005c-13.479,1.629 -27.072,2.302 -40.68,1.965c-13.596,-0.545 -27.212,-1.783 -40.672,-4.209c-13.441,-2.467 -26.736,-5.888 -39.679,-10.383c-12.909,-4.562 -25.585,-9.868 -37.74,-16.233c-0.414,-0.221 -0.818,-0.462 -1.231,-0.686l0,27.429c0,10.658 -8.64,19.297 -19.298,19.297l-27.036,0c-10.658,0 -19.298,-8.639 -19.298,-19.297l0,-76.228c-9.283,-9.552 -17.948,-19.687 -25.908,-30.36c-8.101,-11.068 -15.415,-22.707 -21.839,-34.821c-12.602,-24.35 -21.79,-50.488 -26.594,-77.411c-9.775,-53.764 -2.79,-110.12 19.763,-159.116c22.384,-49.017 59.857,-90.247 105.211,-116.51c45.226,-26.429 98.115,-37.864 147.92,-32.052c-12.433,1.674 -24.678,3.547 -36.615,6.64c-11.921,3.069 -23.593,6.68 -34.851,11.201c-11.206,4.645 -22.154,9.675 -32.52,15.695c-10.338,6.046 -20.334,12.522 -29.673,19.819c-37.508,28.937 -65.917,67.937 -81.52,110.944c-7.868,21.487 -12.465,43.941 -14.074,66.51c-0.712,11.303 -0.498,22.629 0.153,33.885c0.95,11.235 2.417,22.403 4.874,33.356c2.589,10.911 5.525,21.732 9.494,32.2c4.009,10.438 8.571,20.666 14.007,30.428c5.478,9.73 11.39,19.22 18.091,28.161c6.764,8.887 14.105,17.32 21.972,25.241c7.943,7.844 16.359,15.201 25.25,21.96c8.946,6.69 18.416,12.638 28.172,18.066c9.761,5.436 19.985,9.998 30.422,14.008c10.46,3.99 21.291,6.876 32.198,9.471c10.95,2.459 22.114,3.927 33.347,4.878c11.255,0.657 22.576,0.83 33.876,0.14c22.564,-1.602 45.004,-6.228 66.49,-14.071c42.99,-15.607 81.976,-44.001 110.915,-81.492c7.299,-9.333 13.785,-19.322 19.825,-29.659c6.028,-10.36 11.054,-21.307 15.705,-32.509c4.528,-11.254 8.142,-22.923 11.215,-34.842c3.103,-11.935 4.981,-24.179 6.665,-36.612c5.85,49.806 -5.574,102.713 -31.998,147.957" id="path106"/>
   </g>
   <g stroke="null" transform="matrix(0.03678828155720942,0,0,-0.035838014029133905,73.2057682990249,179.03818173348145) " id="g108">
    <path fill-rule="nonzero" d="m-1584.311686,4857.041686c-35.25,20.37 -76.389,28.999 -114.937,24.128c9.623,-1.394 19.087,-2.913 28.301,-5.391c9.203,-2.445 18.203,-5.306 26.875,-8.862c17.337,-7.108 33.443,-16.457 47.815,-27.719c28.782,-22.476 50.488,-52.583 62.365,-85.676c5.971,-16.539 9.467,-33.79 10.654,-51.123c0.507,-8.681 0.349,-17.376 -0.17,-26.016c-0.748,-8.623 -1.891,-17.191 -3.795,-25.591c-2.012,-8.366 -4.23,-16.676 -7.303,-24.698c-3.087,-8.004 -6.595,-15.844 -10.776,-23.327c-4.17,-7.482 -8.733,-14.746 -13.869,-21.607c-5.187,-6.818 -10.835,-13.272 -16.853,-19.365c-6.075,-6.037 -12.542,-11.671 -19.358,-16.863c-6.856,-5.145 -14.137,-9.679 -21.596,-13.89c-7.486,-4.181 -15.329,-7.688 -23.334,-10.775c-8.028,-3.055 -16.329,-5.315 -24.699,-7.322c-8.403,-1.903 -16.973,-3.046 -25.598,-3.792c-8.643,-0.513 -17.341,-0.707 -26.025,-0.182c-17.337,1.195 -34.6,4.667 -51.14,10.657c-33.107,11.875 -63.224,33.593 -85.699,62.39c-11.258,14.381 -20.604,30.492 -27.705,47.835c-3.551,8.675 -6.408,17.677 -8.851,26.882c-2.47,9.216 -3.985,18.682 -5.37,28.304c-4.839,-38.548 3.799,-79.671 24.173,-114.906c20.247,-35.335 52.224,-64.606 90.338,-82.131c38.1,-17.658 81.995,-23.182 123.9,-15.614c20.987,3.716 41.363,10.869 60.351,20.675c9.447,4.999 18.519,10.701 27.148,17.012c8.571,6.39 16.708,13.351 24.35,20.834c7.503,7.625 14.451,15.776 20.844,24.344c6.321,8.625 11.994,17.713 17.034,27.139c9.815,18.989 16.94,39.375 20.693,60.358c7.548,41.91 2.084,85.824 -15.609,123.932c-17.522,38.128 -46.804,70.116 -82.154,90.36" id="path110"/>
   </g>
  </g>
 </g>
</svg>
